<svg width="931" height="294" viewBox="0 0 931 294" fill="none" xmlns="http://www.w3.org/2000/svg">
<g clip-path="url(#clip0)">
<path fill-rule="evenodd" clip-rule="evenodd" d="M493.13 89.6196L483.991 102.428C452.212 99.0504 417.762 94.8277 381.062 89.6196C380.78 89.3386 380.499 89.0562 380.218 88.7752C380.218 87.65 384.717 85.961 393.857 83.8498L493.13 89.6196ZM734 227.269C717.268 243.595 705.737 251.478 699.409 251.195C684.645 250.351 568.498 245.989 350.97 238.106C340.846 241.625 330.863 244.722 321.301 247.537C298.521 253.589 278.555 256.685 261.541 256.967C212.327 257.529 176.329 250.915 153.269 237.262C171.267 237.544 181.672 233.884 184.064 226.425C184.907 224.595 185.329 222.625 185.329 220.655C185.329 208.127 176.47 199.683 158.612 195.601C141.597 191.66 130.208 195.46 124.724 206.721C121.771 212.772 122.193 217.839 125.989 221.921C122.756 220.372 119.24 215.446 115.726 207.565C114.038 188.565 145.535 168.156 210.077 146.48C234.543 113.828 260.134 98.0645 287.132 99.4725C315.958 101.162 351.673 105.101 394.139 111.435C428.87 116.643 455.445 119.035 474.147 118.473C481.74 118.19 506.348 78.7829 547.828 0.105339C555.281 -0.175624 560.905 0.105339 564.702 0.949654C567.796 1.79433 571.733 2.91961 576.654 4.18644L557.391 93.7007L683.801 106.509C682.677 108.762 679.863 111.013 675.084 113.546C664.116 113.828 622.776 112.562 551.203 109.746L541.22 145.636C534.19 152.533 519.987 164.919 498.895 182.793C489.755 189.69 476.398 197.29 458.82 205.876L734 227.269V227.269ZM180.406 153.097C172.954 155.63 161.564 160.414 146.237 167.593C140.192 171.112 132.177 177.023 122.333 185.326C91.2584 167.453 51.1835 144.791 1.96809 117.629C0.702456 116.784 0 115.94 0 115.095C0 111.295 17.9978 108.479 53.9955 106.509L180.406 153.097V153.097ZM172.532 223.61C172.532 231.069 161.705 234.728 140.05 234.728C130.629 234.728 125.989 231.914 125.989 226.144C125.989 211.505 134.988 204.61 152.847 205.454C165.924 206.299 172.532 212.349 172.532 223.61ZM380.218 165.059L371.499 128.324L339.861 124.243L354.625 168.72L380.218 165.059V165.059ZM343.518 170.831L330.722 124.243L325.8 173.645L343.518 170.831V170.831ZM322.987 122.132C302.036 115.235 284.039 111.857 268.992 111.857C262.947 111.857 257.885 112.421 253.666 113.546C244.947 115.94 232.996 127.058 217.95 146.903C225.825 147.185 239.746 148.592 259.431 150.985C277.289 154.644 296.411 161.259 316.801 170.831L322.987 122.132Z" transform="translate(78 -27)" fill="#0277BD" fill-opacity="0.3"/>
<g filter="url(#filter0_d)">
<path d="M50.26 9.8V2.1H10.5V105.14H18.2V53.48H43.96V45.78H18.2V9.8H50.26ZM98.2231 97.58H78.9031V2.24H71.2031V105.28H78.9031H98.2231V97.58ZM161.471 2.1L145.791 67.62C143.551 66.36 141.871 64.12 141.171 61.32L127.171 2.1H119.191L133.611 63.14C135.011 68.88 138.931 73.22 143.971 75.32L136.971 105H144.951L169.451 2.1H161.471ZM198.122 105.14V2.1H190.422V105.14H198.122ZM270.373 105.28V2.37999H262.673V85.54L227.113 2.37999H219.133V105.28H226.833V21.42L262.673 105.28H270.373ZM316.94 104.86C320.44 104.86 323.8 104.16 326.88 102.9C329.96 101.5 332.76 99.68 335.14 97.44C337.38 95.06 339.34 92.26 340.6 89.18C341.86 86.1 342.56 82.74 342.56 79.24V49.7H316.94V57.4H334.86V79.24C334.86 81.62 334.44 84 333.46 86.24C332.62 88.34 331.22 90.3 329.68 91.98C328 93.52 326.04 94.78 323.94 95.76C319.6 97.58 314.42 97.58 309.94 95.76C307.84 94.78 306.02 93.52 304.34 91.98C302.66 90.3 301.4 88.34 300.42 86.24C299.58 84 299.02 81.62 299.02 79.24V27.86C299.02 25.34 299.58 23.1 300.42 20.86C301.4 18.76 302.66 16.8 304.34 15.12C306.02 13.44 307.84 12.18 309.94 11.34C314.42 9.38 319.6 9.38 323.94 11.34C326.04 12.18 328 13.44 329.68 15.12L335.14 9.65999C332.76 7.28 329.96 5.46 327.02 4.2C323.8 2.8 320.44 2.24 316.94 2.24C313.58 2.24 310.22 2.8 307 4.2C303.92 5.46 301.26 7.28 298.88 9.65999C296.5 12.04 294.68 14.84 293.42 17.78C292.02 21 291.32 24.36 291.32 27.86V79.24C291.32 82.74 292.02 86.1 293.42 89.18C294.68 92.26 296.5 95.06 298.88 97.44C301.26 99.68 303.92 101.5 307 102.9C310.22 104.16 313.58 104.86 316.94 104.86ZM432.526 9.8V2.1H392.766V105.14H432.526V97.3H400.466V53.48H426.226V45.78H400.466V9.8H432.526ZM490.849 2.1H476.009H468.309H453.469V9.8H468.309V105H476.009V9.8H490.849V2.1ZM519.548 105.14V2.1H511.848V105.14H519.548ZM566.179 2.37999C552.039 2.37999 540.559 13.86 540.559 28V79.38C540.559 93.52 552.039 105.14 566.179 105.14C580.319 105.14 591.799 93.52 591.799 79.38V28C591.799 13.86 580.319 2.37999 566.179 2.37999ZM566.179 97.3C556.379 97.3 548.259 89.32 548.259 79.38V28C548.259 18.06 556.379 10.08 566.179 10.08C576.119 10.08 584.099 18.06 584.099 28V69.3H566.179V77H584.099V79.38C584.099 89.32 576.119 97.3 566.179 97.3ZM639.486 104.86C654.186 104.86 666.086 92.82 666.086 78.12V2.1H658.386V78.12C658.386 88.62 649.846 97.16 639.486 97.16C628.986 97.16 620.446 88.62 620.446 78.12V2.1H612.746V78.12C612.746 92.82 624.786 104.86 639.486 104.86ZM694.821 97.3V53.48H717.221V45.78H694.821V9.8H717.221V2.1H687.121V105.14H723.521V97.3H694.821ZM781.923 2.1H767.083H759.383H744.543V9.8H759.383V105H767.083V9.8H781.923V2.1ZM840.302 2.1H825.462H817.762H802.922V9.8H817.762V105H825.462V9.8H840.302V2.1ZM869.001 97.3V53.48H891.401V45.78H869.001V9.8H891.401V2.1H861.301V105.14H897.701V97.3H869.001Z" transform="translate(16 85)" fill="black"/>
</g>
</g>
<defs>
<filter id="filter0_d" x="21.5" y="86.1" width="897.201" height="113.18" filterUnits="userSpaceOnUse" color-interpolation-filters="sRGB">
<feFlood flood-opacity="0" result="BackgroundImageFix"/>
<feColorMatrix in="SourceAlpha" type="matrix" values="0 0 0 0 0 0 0 0 0 0 0 0 0 0 0 0 0 0 255 0"/>
<feOffset dy="4"/>
<feGaussianBlur stdDeviation="2"/>
<feColorMatrix type="matrix" values="0 0 0 0 0 0 0 0 0 0 0 0 0 0 0 0 0 0 0.25 0"/>
<feBlend mode="normal" in2="BackgroundImageFix" result="effect1_dropShadow"/>
<feBlend mode="normal" in="SourceGraphic" in2="effect1_dropShadow" result="shape"/>
</filter>
<clipPath id="clip0">
<rect width="931" height="294" fill="white"/>
</clipPath>
</defs>
</svg>
